<svg xmlns="http://www.w3.org/2000/svg" xmlns:xlink="http://www.w3.org/1999/xlink" width="79" height="20" viewBox="0 0 79 20">
    <defs>
        <linearGradient id="rbyyy45zkb" x1="92.684%" x2="10.71%" y1="48.71%" y2="51.867%">
            <stop offset="0%" stop-color="#B5B5B5"/>
            <stop offset="100%" stop-color="#BBB7B7"/>
        </linearGradient>
        <linearGradient id="929pb9mtrd" x1="92.684%" x2="10.71%" y1="48.906%" y2="51.583%">
            <stop offset="0%" stop-color="#634040"/>
            <stop offset="100%" stop-color="#D8D8D8"/>
        </linearGradient>
        <path id="g3j75e5bza" d="M4.067 0h70.975c1.647 0 4 1.79 4 4v12c0 2.21-2.353 4-4 4H4.067C2.42 20 0 18.21 0 16V4c0-2.21 2.42-4 4.067-4z"/>
    </defs>
    <g fill="none" fill-rule="evenodd">
        <g>
            <g>
                <mask id="gxfx71fq9c" fill="#fff">
                    <use xlink:href="#g3j75e5bza"/>
                </mask>
                <use fill="#FF4949" xlink:href="#g3j75e5bza"/>
                <path fill="url(#rbyyy45zkb)" d="M19 10.533c3.692-.8 7.921-2.755 12.688-5.866C36.455 1.556 44.375 0 55.446 0H107c-5.013 8.024-15.028 11.358-30.043 10-22.524-2.037-29.452 1.164-38.62 5.43C32.223 18.275 25.778 17.265 19 12.4v-1.867z" mask="url(#gxfx71fq9c)" opacity=".41" style="mix-blend-mode:overlay"/>
                <path fill="url(#929pb9mtrd)" d="M19.931 11.186C33.768 15.452 41.47 1.624 56.33 5.357 66.236 7.847 84.126 7.394 110 4v6.533C103.183 17.2 94.223 20.356 83.119 20c-16.657-.533-26-5.2-39.085-2-8.722 2.133-16.668 1.422-23.836-2.133-.178-1.343-.267-2.904-.267-4.681z" mask="url(#gxfx71fq9c)" opacity=".41" style="mix-blend-mode:overlay"/>
            </g>
            <path fill="#FFF" fill-rule="nonzero" d="M27.721 15.372l1.504-1.447V6.842l-1.588-1.447h-4.019v4.05H23v1.878h.618v4.049h4.103zm-.815-1.878h-.97v-2.171h.436V9.444h-.435v-2.17h.97v6.22zm6.955-8.697l.731-.835v-.918h-.998v.82h-1.91v-.82h-.998v.918l.745.835h2.43zm-2.037 10.575l.197-1.837h1.349l.196 1.837h2.277l-1.504-9.977h-3.358l-1.42 9.977h2.263zm1.377-3.715h-1.012l.352-4.147h.224l.436 4.147zM33.622 17v-1.141h-1.868V17h1.868zm5.705-1.628V7.274h1.307V5.395h-4.932v1.879h1.307v8.098h2.318zm8.993 0V7.274h1.306V5.395h-4.931v1.879H46v8.098h2.319zm4.327 0v-3.98h.97v3.98h2.248v-3.98l-1.166-.974 1.166-.96V6.842l-1.56-1.447H50.33v9.977h2.318zm.97-5.858h-.97v-2.24h.97v2.24zm7.517 5.858l1.504-1.447V5.98l.014.014.899-1.17v-.612h-1.349v.724h.422l-.267.46h-2.038v8.098h-1.011V5.395h-2.319v8.53l1.546 1.447h2.6zm5.438-11.007l2.262-1.001.267-.57-.52-.794-.618.042-1.799 1.697.408.626zm1.307 11.007l1.489-1.447V6.842l-.998-.904 1.18-.96v-.766h-1.376v.724h.421l-.632.64c-.056-.065-.117-.125-.183-.18h-2.487l-1.531 1.446v7.083l1.531 1.447h2.586zm-.83-1.878h-.969v-6.22h.97v6.22zm7.42 1.878L76 13.925v-2.81h-2.262v2.379h-.998v-6.22h.998v1.948H76v-2.38l-1.532-1.447H71.94l-1.517 1.447v7.083l1.658 1.447h2.388z"/>
            <g fill="#FFF">
                <path d="M16.467 6.067V3.274c0-.913-.494-1.364-1.332-1.364H2.25c-.838 0-1.39.45-1.39 1.364L.853 6.067c.691 0 1.387.53 1.387 1.386 0 .856-.677 1.386-1.387 1.386v2.765c0 .905.56 1.399 1.398 1.399h12.691c.839 0 1.525-.494 1.525-1.399V8.839c-.694 0-1.387-.56-1.387-1.386 0-.825.693-1.386 1.387-1.386zM8.844 4.716c.073.034.133.089.17.157l.761 1.434 1.704.23c.204.028.345.204.316.393-.012.076-.05.145-.109.199l-1.233 1.116.291 1.576c.035.19-.101.368-.305.4-.08.013-.164.001-.236-.034l-1.524-.744-1.524.744c-.183.089-.408.024-.504-.146-.038-.067-.052-.144-.038-.22l.291-1.576L5.671 7.13c-.147-.134-.15-.353-.006-.49.057-.055.132-.09.213-.102l1.704-.23.762-1.434c.091-.171.315-.242.5-.157z" transform="translate(2 3)"/>
                <path d="M2.592 1.914h13.295l-.347-.698C15.326.492 14.662.051 13.982.183L2.592 1.914z" opacity=".577" transform="translate(2 3)"/>
            </g>
        </g>
    </g>
</svg>